<?xml version="1.0" encoding="UTF-8"?>
<svg width="24px" height="25px" viewBox="0 0 24 25" version="1.1" xmlns="http://www.w3.org/2000/svg" xmlns:xlink="http://www.w3.org/1999/xlink">
    <!-- Generator: Sketch 46.2 (44496) - http://www.bohemiancoding.com/sketch -->
    <title>Facebook-color</title>
    <desc>Created with Sketch.</desc>
    <defs></defs>
    <g id="Symbols" stroke="none" stroke-width="1" fill-rule="evenodd">
        <g id="footer" transform="translate(-562.000000, -81.000000)">
            <g id="social">
                <g transform="translate(562.489982, 32.000000)">
                    <g id="social_icons" transform="translate(0.000000, 49.000000)">
                        <path d="M1.25095072,24.5555556 C0.559867288,24.5555556 0,23.9486197 0,23.2001926 L0,1.35526765 C0,0.606649965 0.559955234,0 1.25095072,0 L21.41444,0 C22.1052596,0 22.6653028,0.606649965 22.6653028,1.35526765 L22.6653028,23.2001926 C22.6653028,23.948715 22.1051717,24.5555556 21.41444,24.5555556 L15.6387309,24.5555556 L15.6387309,15.0462912 L18.58485,15.0462912 L19.0259896,11.3403621 L15.6387309,11.3403621 L15.6387309,8.97436053 C15.6387309,7.90140855 15.9137395,7.17022718 17.3338993,7.17022718 L19.145245,7.16936965 L19.145245,3.85475697 C18.8319796,3.80959408 17.756746,3.7086922 16.5057952,3.7086922 C13.8942245,3.7086922 12.1062726,5.43574375 12.1062726,8.60734064 L12.1062726,11.3403621 L9.15259011,11.3403621 L9.15259011,15.0462912 L12.1062726,15.0462912 L12.1062726,24.5555556 L1.25095072,24.5555556 Z" id="Facebook"></path>
                    </g>
                </g>
            </g>
        </g>
    </g>
</svg>