<?xml version="1.0" encoding="UTF-8"?>
<svg width="26px" height="23px" viewBox="0 0 26 23" version="1.1" xmlns="http://www.w3.org/2000/svg" xmlns:xlink="http://www.w3.org/1999/xlink">
    <!-- Generator: Sketch 46.2 (44496) - http://www.bohemiancoding.com/sketch -->
    <title>Twitter-color</title>
    <desc>Created with Sketch.</desc>
    <defs></defs>
    <g id="Symbols" stroke="none" stroke-width="1" fill-rule="evenodd">
        <g id="footer" transform="translate(-616.000000, -83.000000)">
            <g id="social">
                <g transform="translate(562.489982, 32.000000)">
                    <g id="social_icons" transform="translate(0.000000, 49.000000)">
                        <path d="M79.3285599,5.40485534 C78.3916555,5.84102564 77.3829118,6.13598973 76.3247787,6.26778219 C77.4053616,5.58999238 78.234507,4.51525621 78.6251333,3.23498656 C77.6133963,3.86256972 76.495397,4.31913647 75.3010685,4.5638939 C74.3491976,3.49857149 72.9887406,2.83333333 71.4831084,2.83333333 C68.596066,2.83333333 66.2538052,5.28875246 66.2538052,8.31684122 C66.2538052,8.74673568 66.2987047,9.16407849 66.3885039,9.56573171 C62.0407289,9.33666386 58.1868491,7.15581237 55.6051239,3.83432848 C55.1546315,4.64704867 54.8972073,5.58999238 54.8972073,6.59412544 C54.8972073,8.49570242 55.8206418,10.1744874 57.2245017,11.158224 C56.3684165,11.1315517 55.5602243,10.8820874 54.8538044,10.4741583 L54.8538044,10.5416235 C54.8538044,13.1994382 56.6572704,15.4163757 59.0519142,15.9184423 C58.613395,16.0470968 58.1509295,16.1114241 57.6734974,16.1114241 C57.3367506,16.1114241 57.0074871,16.078476 56.6887001,16.0141487 C57.3547104,18.1918623 59.2853919,19.7780787 61.57527,19.8204406 C59.7852738,21.2921231 57.5283221,22.1691706 55.0783022,22.1691706 C54.6562463,22.1691706 54.2386803,22.1440673 53.8300942,22.0938606 C56.1454153,23.6471289 58.8962623,24.5555556 61.8491574,24.5555556 C71.4726318,24.5555556 76.7333647,16.2008547 76.7333647,8.95383813 C76.7333647,8.71535653 76.7288748,8.47687492 76.7198949,8.2431002 C77.7421084,7.46960395 78.6296232,6.50469484 79.3285599,5.40485534" id="Twitter"></path>
                    </g>
                </g>
            </g>
        </g>
    </g>
</svg>